<?xml version="1.0" standalone="no"?>
<!DOCTYPE svg PUBLIC "-//W3C//DTD SVG 20010904//EN"
 "http://www.w3.org/TR/2001/REC-SVG-20010904/DTD/svg10.dtd">
<svg version="1.0" xmlns="http://www.w3.org/2000/svg"
 width="120.000000pt" height="120.000000pt" viewBox="0 0 120.000000 120.000000"
 preserveAspectRatio="xMidYMid meet">
<metadata>
Created by potrace 1.11, written by Peter Selinger 2001-2013
</metadata>
<g transform="translate(0.000000,120.000000) scale(0.100000,-0.100000)"
fill="#000000" stroke="none">
<path d="M669 1125 c-3 -2 -20 -7 -39 -10 -42 -7 -108 -45 -133 -75 -11 -13
-29 -41 -40 -64 -20 -36 -26 -41 -61 -44 -76 -5 -159 -72 -172 -139 -4 -20
-17 -35 -40 -48 -40 -21 -67 -70 -62 -112 4 -32 45 -96 58 -88 5 3 10 0 12 -6
2 -7 28 -11 63 -11 33 0 66 -5 74 -12 10 -7 12 -7 8 0 -4 7 12 11 49 12 39 0
53 -3 48 -11 -3 -7 1 -4 9 6 13 16 16 16 28 1 12 -14 14 -14 26 2 12 17 13 17
13 -1 0 -10 3 -15 7 -12 3 4 13 1 21 -6 13 -9 14 -9 8 0 -5 9 -2 11 8 7 9 -3
13 -10 10 -15 -3 -5 2 -9 12 -9 9 0 23 -8 31 -17 8 -10 12 -13 9 -7 -6 12 70
4 94 -11 13 -8 13 -6 0 11 -8 10 -11 16 -6 12 5 -4 17 -3 27 2 12 7 19 6 22
-3 4 -7 6 -6 6 4 1 10 9 16 19 15 9 0 16 4 15 11 -3 15 25 25 33 11 4 -6 3 -8
-3 -5 -5 3 -10 0 -10 -8 0 -13 2 -13 16 -1 11 10 21 12 34 5 9 -6 17 -7 17 -3
0 3 8 0 17 -7 11 -10 14 -10 9 -1 -7 11 16 17 52 13 6 -1 12 3 12 9 0 5 9 10
19 10 11 0 23 5 26 10 4 6 11 7 17 4 7 -4 8 -2 4 5 -6 9 -12 9 -24 -1 -15 -10
-15 -10 -4 2 7 8 18 15 25 15 7 1 11 6 9 13 -1 7 5 12 14 12 8 0 13 4 9 9 -3
6 3 14 12 20 12 7 13 10 4 11 -11 0 -11 3 -1 15 7 8 9 15 4 15 -4 0 -3 5 3 11
10 10 3 72 -14 115 -15 38 -60 83 -107 104 -25 12 -43 26 -40 31 3 5 0 9 -5 9
-6 0 -11 7 -11 17 0 52 -107 160 -164 165 -12 1 -28 2 -36 3 -8 0 -20 4 -26 8
-6 3 -13 5 -15 2z"/>
<path d="M435 459 c-4 -6 -22 -9 -40 -7 -19 2 -31 0 -29 -4 5 -7 -26 -13 -48
-9 -5 0 -8 -3 -8 -8 0 -8 -37 -24 -52 -22 -3 0 -9 -6 -12 -15 -8 -20 20 -29
49 -16 15 7 27 8 30 2 3 -6 16 -15 28 -21 19 -9 19 -8 -3 10 -18 15 -21 21 -9
21 9 0 19 -3 23 -7 10 -10 56 -12 50 -2 -2 4 -13 6 -24 4 -11 -2 -20 0 -20 4
0 4 27 7 60 7 33 -1 60 -2 60 -4 0 -2 -5 -13 -11 -25 -7 -12 -8 -19 -4 -15 5
4 15 2 24 -4 13 -10 14 -10 4 2 -15 17 -17 34 -3 25 6 -3 7 1 4 12 -3 10 2 7
11 -7 9 -14 14 -17 11 -7 -3 9 -1 17 4 17 6 0 10 -4 10 -8 0 -4 9 -9 20 -10
43 -4 50 -6 50 -14 0 -4 -4 -8 -10 -8 -5 0 -10 -5 -10 -11 0 -5 5 -7 10 -4 6
3 10 -1 10 -9 0 -18 -16 -21 -25 -5 -4 6 -13 8 -20 5 -8 -3 -16 0 -19 7 -2 7
-5 7 -5 2 -1 -6 -21 -9 -46 -7 -56 5 -104 -13 -102 -37 0 -10 7 -18 14 -18 6
0 10 4 8 7 -3 4 8 7 24 6 16 0 28 -4 25 -7 -2 -4 13 -7 34 -7 64 -2 72 -3 72
-13 0 -6 -4 -8 -8 -5 -4 2 -9 -5 -9 -16 -2 -20 -2 -20 14 1 10 15 19 19 25 13
6 -6 17 -8 24 -5 8 3 14 1 14 -4 0 -5 6 -10 13 -10 6 -1 30 -4 52 -8 22 -4 48
-7 57 -8 9 -1 14 -5 12 -9 -3 -4 2 -5 10 -2 9 3 13 11 9 18 -5 8 -3 8 8 1 16
-12 39 -13 57 -2 7 5 12 4 12 -2 0 -6 5 -11 11 -11 5 0 8 4 5 9 -3 5 3 11 14
14 12 3 24 -1 30 -11 9 -15 10 -15 8 3 -2 12 2 19 10 17 6 -1 12 2 12 8 0 5 6
10 13 10 6 0 32 18 57 40 36 32 41 39 25 40 -12 0 -39 -9 -60 -20 -22 -11 -46
-18 -53 -15 -7 3 -10 0 -7 -5 3 -6 -4 -11 -17 -11 -13 -1 -34 -3 -48 -6 -65
-11 -162 -3 -215 17 -25 9 -37 41 -24 61 6 10 9 8 9 -8 0 -13 5 -23 11 -23 5
0 8 4 4 9 -3 5 -1 12 4 15 16 10 24 -14 11 -29 -8 -9 -8 -15 -2 -15 6 0 12 5
14 11 6 17 58 20 65 3 3 -8 10 -14 17 -13 25 3 37 -2 30 -13 -4 -6 -3 -8 4 -4
5 3 12 1 14 -6 3 -7 7 -5 11 6 4 10 3 15 -3 11 -6 -3 -13 0 -16 9 -3 8 -14 13
-25 11 -10 -2 -19 0 -19 4 0 4 19 7 42 8 23 1 44 6 46 12 3 9 8 8 20 -1 9 -7
13 -8 9 -2 -3 6 5 17 18 24 29 15 31 23 10 40 -12 10 -15 10 -15 0 0 -8 -3
-10 -7 -7 -3 4 -12 2 -20 -5 -10 -8 -17 -8 -25 0 -8 8 -16 7 -30 -1 -15 -9
-20 -9 -27 1 -7 12 -12 12 -30 0 -18 -11 -23 -11 -31 2 -5 8 -10 12 -10 8 0
-4 -20 -1 -44 6 -25 8 -47 11 -50 8 -4 -3 -6 0 -6 7 0 7 -5 9 -12 5 -8 -5 -9
-2 -4 11 5 14 4 15 -7 7 -14 -12 -53 -6 -76 12 -11 8 -13 8 -7 -2 8 -13 -19
-13 -41 1 -6 4 -15 2 -18 -4z"/>
<path d="M440 380 c-12 -7 -10 -9 7 -7 12 0 19 5 17 9 -6 10 -6 10 -24 -2z"/>
<path d="M548 353 c6 -2 18 -2 25 0 6 3 1 5 -13 5 -14 0 -19 -2 -12 -5z"/>
<path d="M701 314 c0 -11 3 -14 6 -6 3 7 2 16 -1 19 -3 4 -6 -2 -5 -13z"/>
<path d="M813 324 c8 -9 47 -13 51 -6 2 4 -9 8 -25 8 -17 1 -28 0 -26 -2z"/>
<path d="M1010 279 c0 -5 5 -7 10 -4 6 3 10 8 10 11 0 2 -4 4 -10 4 -5 0 -10
-5 -10 -11z"/>
<path d="M433 255 c0 -8 4 -12 9 -9 4 3 8 9 8 15 0 5 -4 9 -8 9 -5 0 -9 -7 -9
-15z"/>
<path d="M500 259 c0 -5 5 -7 10 -4 6 3 10 8 10 11 0 2 -4 4 -10 4 -5 0 -10
-5 -10 -11z"/>
<path d="M481 244 c0 -11 3 -14 6 -6 3 7 2 16 -1 19 -3 4 -6 -2 -5 -13z"/>
<path d="M525 240 c3 -5 8 -10 11 -10 2 0 4 5 4 10 0 6 -5 10 -11 10 -5 0 -7
-4 -4 -10z"/>
<path d="M582 245 c14 -15 -29 -36 -54 -27 -32 12 -149 7 -188 -8 -3 -1 -8 -2
-12 -1 -5 0 -8 -4 -8 -10 0 -8 -6 -7 -17 2 -9 8 -14 9 -10 3 4 -7 -5 -17 -23
-24 -35 -15 -38 -25 -9 -41 15 -8 19 -8 15 0 -5 7 3 11 19 11 15 0 36 5 47 11
12 6 18 7 14 1 -3 -5 1 -12 9 -15 8 -4 12 -1 9 6 -3 8 7 13 26 13 27 2 29 0
18 -15 -8 -10 -4 -9 10 4 20 16 25 17 32 5 7 -10 10 -11 10 -2 0 6 5 12 10 12
6 0 10 -6 10 -14 0 -23 17 -28 34 -10 15 15 21 11 16 -11 -1 -5 4 -4 11 3 15
14 33 16 25 3 -3 -5 4 -9 17 -10 44 -1 56 -4 50 -14 -4 -6 1 -8 11 -4 10 4 23
4 29 0 7 -4 24 -6 38 -5 18 2 28 -3 35 -19 9 -19 11 -20 23 -5 12 14 12 16 -4
10 -13 -5 -16 -4 -11 4 10 16 36 15 36 0 0 -8 5 -6 11 4 5 10 16 15 24 12 8
-4 15 -1 15 5 0 6 6 11 14 11 17 0 46 27 46 42 0 6 -15 7 -40 3 -22 -4 -48 -8
-58 -10 -9 -1 -20 2 -24 8 -3 6 -17 12 -30 14 -17 2 -19 1 -8 -6 8 -5 18 -7
22 -5 4 3 8 0 8 -5 0 -16 -63 -8 -78 9 -10 11 -12 12 -6 1 6 -11 3 -13 -12 -7
-10 4 -31 10 -47 13 -33 7 -44 21 -23 29 9 3 13 10 10 16 -3 5 -13 0 -21 -11
-8 -12 -19 -19 -24 -15 -6 3 -3 11 7 18 14 11 15 14 3 21 -8 5 -11 5 -7 0z
m-67 -84 c3 -5 1 -12 -5 -16 -5 -3 -10 1 -10 9 0 18 6 21 15 7z"/>
<path d="M632 214 c-7 -8 -8 -14 -3 -14 10 0 25 19 20 25 -2 1 -10 -3 -17 -11z"/>
<path d="M657 207 c-3 -8 1 -14 8 -14 7 0 11 6 8 14 -6 16 -10 16 -16 0z"/>
<path d="M720 200 c-8 -5 -12 -12 -9 -15 4 -3 12 1 19 10 14 17 11 19 -10 5z"/>
<path d="M791 203 c-1 -16 16 -26 24 -14 3 6 12 8 20 4 8 -3 15 -1 15 5 0 11
-18 11 -37 -1 -6 -4 -14 -1 -16 5 -4 9 -6 10 -6 1z"/>
</g>
</svg>
